<svg xmlns="http://www.w3.org/2000/svg" version="1.1" xmlns:xlink="http://www.w3.org/1999/xlink" xmlns:svgjs="http://svgjs.dev/svgjs" width="1000" height="1000"><g clip-path="url(#SvgjsClipPath1093)"><rect width="1000" height="1000" fill="#f04632"></rect><g transform="matrix(2.1875,0,0,2.1875,150,150)"><svg xmlns="http://www.w3.org/2000/svg" version="1.1" xmlns:xlink="http://www.w3.org/1999/xlink" xmlns:svgjs="http://svgjs.dev/svgjs" width="320" height="320"><svg id="Layer_1" xmlns="http://www.w3.org/2000/svg" xmlns:xlink="http://www.w3.org/1999/xlink" version="1.1" viewBox="0 0 320 320">
	<!-- Generator: Adobe Illustrator 29.3.1, SVG Export Plug-In . SVG Version: 2.1.0 Build 151)  -->
	<defs>
		<style>
            .st0 {
                fill: #f04632;
            }

            .st2 {
                fill: #fff;
            }
		</style>
	<clipPath id="SvgjsClipPath1093"><rect width="1000" height="1000" x="0" y="0" rx="0" ry="0"></rect></clipPath></defs>

	<g transform="translate(-604)">
	<path class="st0" d="M607.3.3h229.8v314.7c0,1.3.4,3-.4,4.6h-346.3c.8-.8,1.7-1.7,2.5-2.5,37.2-33.8,74.3-67.6,111.5-101.4,2.1-2.1,3-3.8,3-6.8V3.7c.4-.7.8-2-.1-3.3Z"></path>
	<rect class="st0" x="604" width="320" height="320"></rect>
	<path class="st2" d="M677.5,99h53.3L830,0h-103.7l-48.9,45.7v53.3Z"></path>
	<path class="st2" d="M830.5,7.6l-99.5,99.5,99.5,99.5V7.6Z"></path>
	<path class="st2" d="M830.5,222v98h-98l98-98Z"></path>
	<path class="st2" d="M730.8,313.7V114.9l99.4,99.4-99.4,99.4Z"></path>
	</g>
</svg></svg></g></g></svg>