<?xml version="1.0" encoding="utf-8"?>
<!-- Generator: Adobe Illustrator 27.6.1, SVG Export Plug-In . SVG Version: 6.00 Build 0)  -->
<svg version="1.1" id="Layer_1" xmlns="http://www.w3.org/2000/svg" xmlns:xlink="http://www.w3.org/1999/xlink" x="0px" y="0px"
	 viewBox="0 0 579 317.5" style="enable-background:new 0 0 579 317.5;" xml:space="preserve">
<style type="text/css">
	.st0{fill:#F9C732;}
	.st1{fill:#1E32F9;}
	.st2{fill:#FDFDFE;}
	.st3{fill:#FDFEFE;}
</style>
<g>
	<path class="st0" d="M351.4-1.5c76.5,0,153.3,0,229.8,0c0,1.3,0,3,0,4.2c0,103.5,0,207,0,310.5c0,1.3,0.4,3-0.4,4.6
		c-1.3,0-3,0-4.6,0c-112.4,0-224.7,0-337.1,0c-1.7,0-3,0-4.6,0c0.8-0.8,1.7-1.7,2.5-2.5c37.2-33.8,74.3-67.6,111.5-101.4
		c2.1-2.1,3-3.8,3-6.8c0-68.4,0-136.9,0-205.3C351.9,1.1,352.3-0.2,351.4-1.5z"/>
	<path class="st1" d="M351.4-1.5c0.8,1.3,0.4,2.5,0.4,3.8c0,68.4,0,136.9,0,205.3c0,3-0.8,4.6-3,6.8
		c-37.2,33.8-74.3,67.6-111.5,101.4c-0.8,0.8-1.7,1.7-2.5,2.5c-1.3-0.8-0.8-2.1-0.8-3.4c0-30.4,0-60.8,0-91.2c0-1.3,0-2.1,0-3.4
		c-1.7,0.4-2.5,1.7-3.4,2.5c-34.2,30.8-68.4,62.1-102.2,93.4c-2.1,1.7-3.8,2.5-6.8,2.5c-40.6,0-81.1,0-121.7,0
		C0,212.3,0,105.8,0-0.6c39.7,0,79.8,0,119.5,0c0,1.3-1.3,1.7-2.1,2.5c-16.5,13.9-32.5,27.9-49,41.8c-1.7,1.3-2.1,2.5-2.1,4.6
		c0,15.6,0,31.7,0,47.3c0,0.8-0.4,1.7,0.4,3c1.3,0.4,2.1,0.4,3.4,0.4c17.3,0,34.6,0,52,0c2.5,0,4.2-0.8,5.9-2.1
		c35.5-32.5,71-64.6,106.4-97.2C273.3-1.5,312.6-1.5,351.4-1.5z M234,204.2c0-66.3,0-131.8,0-198.1c-36.3,33.4-72.2,66.3-108.1,98.8
		C161.4,137.9,197.7,170.9,234,204.2z M125.5,113.4c0,65.5,0,131.4,0,197.3c36.3-33.4,72.2-65.9,107.7-98.4
		C197.3,179.3,161.4,146.4,125.5,113.4z"/>
	<path class="st2" d="M234-1.5c-35.5,32.5-71,64.6-106.4,97.2c-1.7,1.7-3.4,2.1-5.9,2.1c-17.3,0-34.6,0-52,0c-1.3,0-2.1,0.4-3.4-0.4
		c-0.8-0.8-0.4-1.7-0.4-3c0-15.6,0-31.7,0-47.3c0-2.1,0.8-3.4,2.1-4.6c16.5-13.9,32.5-27.9,49-41.8c0.8-0.8,2.1-1.3,2.1-2.5
		C158-1.5,196-1.5,234-1.5z"/>
	<path class="st2" d="M0,317.9c40.6,0,81.1,0,121.7,0c3,0,4.6-0.8,6.8-2.5c34.2-31.3,68.4-62.1,102.2-93.4c0.8-0.8,1.7-1.7,3.4-2.5
		c0,1.3,0,2.5,0,3.4c0,30.4,0,60.8,0,91.2c0,1.3-0.8,2.5,0.8,3.4c1.7,0,3,0,4.6,0c112.4,0,224.7,0,337.1,0c1.7,0,3,0,4.6,0
		c0.8-1.7,0.4-3,0.4-4.6c0-103.5,0-207,0-310.5c0-1.3,0-3,0-4.2c0.4,0,0.8-0.4,0.8,0.4s0,1.7,0,2.5c0,105.6,0,211.6,0,317.2
		c-2.1,0-4.6,0-6.8,0c-190.9,0-381.4,0-572.4,0C2.1,318.7,0.8,319.1,0,317.9z"/>
	<path class="st3" d="M234,204.2c-36.3-33.4-72.2-66.3-108.1-98.8C161.8,72.4,197.7,39.5,234,6.6C234,72.4,234,137.9,234,204.2z"/>
	<path class="st2" d="M125.5,113.4c35.9,32.9,71.8,65.9,107.7,98.4c-35.5,32.5-71.4,65.5-107.7,98.4
		C125.5,244.8,125.5,179.3,125.5,113.4z"/>
</g>
</svg>
