<?xml version="1.0" encoding="UTF-8"?>
<svg id="Layer_1" xmlns="http://www.w3.org/2000/svg" xmlns:xlink="http://www.w3.org/1999/xlink" version="1.1" viewBox="0 0 924 320">
  <!-- Generator: Adobe Illustrator 29.3.1, SVG Export Plug-In . SVG Version: 2.1.0 Build 151)  -->
  <defs>
    <style>
      .st0 {
        fill: #1e32f9;
      }

      .st1 {
        fill: #fff;
      }

      .st2 {
        fill: #f9c732;
      }
    </style>
  </defs>
  <rect class="st0" x="-.5" y="0" width="773.4" height="320"/>
  <g>
    <path class="st1" d="M81.1,83.2h74.2c21.8.2,37.5,6.5,47.3,18.8,9.8,12.4,13,29.2,9.7,50.6-1.3,9.8-4.2,19.4-8.6,28.8-4.2,9.4-10.1,17.9-17.7,25.5-9.2,9.6-19.1,15.7-29.6,18.3-10.5,2.6-21.4,3.9-32.6,3.9h-33.2l-10.5,52.6h-38.5l39.6-198.4h0M113.4,114.8l-16.6,83c1.1.2,2.2.3,3.3.3h3.9c17.7.2,32.5-1.6,44.3-5.3,11.8-3.9,19.7-17.3,23.8-40.4,3.3-19.4,0-30.5-10-33.5-9.8-2.9-22-4.3-36.8-4.2-2.2.2-4.3.3-6.4.3h-5.8l.3-.3"/>
    <path class="st1" d="M256,30.4h38.2l-10.8,52.8h34.3c18.8.4,32.8,4.2,42.1,11.6,9.4,7.4,12.2,21.4,8.3,42.1l-18.5,92.1h-38.7l17.7-88c1.8-9.2,1.3-15.8-1.7-19.6-2.9-3.9-9.3-5.8-19.1-5.8l-30.7-.3-22.7,113.7h-38.2l39.8-198.7h0"/>
    <path class="st1" d="M409.1,83.2h74.2c21.8.2,37.5,6.5,47.3,18.8,9.8,12.4,13,29.2,9.7,50.6-1.3,9.8-4.2,19.4-8.6,28.8-4.2,9.4-10.1,17.9-17.7,25.5-9.2,9.6-19.1,15.7-29.6,18.3-10.5,2.6-21.4,3.9-32.6,3.9h-33.2l-10.5,52.6h-38.5l39.6-198.4h0M441.5,114.8l-16.6,83c1.1.2,2.2.3,3.3.3h3.9c17.7.2,32.5-1.6,44.3-5.3,11.8-3.9,19.7-17.3,23.8-40.4,3.3-19.4,0-30.5-10-33.5-9.8-2.9-22-4.3-36.8-4.2-2.2.2-4.3.3-6.4.3h-5.8l.3-.3"/>
  </g>
  <path class="st2" d="M607.3.3h229.8v314.7c0,1.3.4,3-.4,4.6h-346.3c.8-.8,1.7-1.7,2.5-2.5,37.2-33.8,74.3-67.6,111.5-101.4,2.1-2.1,3-3.8,3-6.8V3.7c.4-.7.8-2-.1-3.3Z"/>
  <g>
    <rect class="st2" x="604" width="320" height="320"/>
    <g>
      <path class="st1" d="M677.5,99h53.3L830,0h-103.7l-48.9,45.7v53.3Z"/>
      <path class="st1" d="M830.5,7.6l-99.5,99.5,99.5,99.5V7.6Z"/>
      <path class="st1" d="M830.5,222v98h-98l98-98Z"/>
      <path class="st1" d="M730.8,313.7V114.9l99.4,99.4-99.4,99.4Z"/>
    </g>
  </g>
</svg>